<svg width="227" height="116" viewBox="0 0 227 116" fill="none" xmlns="http://www.w3.org/2000/svg">
<rect width="227" height="116" fill="black"/>
<rect x="17" y="63" width="185" height="13" fill="#FF7D04"/>
<path d="M46.642 69V47.1818H59.8097V49.5256H49.2841V56.8977H59.1278V59.2415H49.2841V66.6562H59.9801V69H46.642ZM77.6115 52.6364L71.5604 69H69.0036L62.9524 52.6364H65.6797L70.1967 65.6761H70.3672L74.8842 52.6364H77.6115ZM80.93 69V52.6364H83.4442V69H80.93ZM82.2085 49.9091C81.7184 49.9091 81.2958 49.7422 80.9407 49.4084C80.5927 49.0746 80.4187 48.6733 80.4187 48.2045C80.4187 47.7358 80.5927 47.3345 80.9407 47.0007C81.2958 46.6669 81.7184 46.5 82.2085 46.5C82.6985 46.5 83.1175 46.6669 83.4656 47.0007C83.8207 47.3345 83.9982 47.7358 83.9982 48.2045C83.9982 48.6733 83.8207 49.0746 83.4656 49.4084C83.1175 49.7422 82.6985 49.9091 82.2085 49.9091ZM94.2282 69.3409C92.8645 69.3409 91.6607 68.9964 90.6167 68.3075C89.5726 67.6115 88.7559 66.6314 88.1664 65.3672C87.5769 64.0959 87.2821 62.5938 87.2821 60.8608C87.2821 59.142 87.5769 57.6506 88.1664 56.3864C88.7559 55.1222 89.5762 54.1456 90.6273 53.4567C91.6784 52.7678 92.8929 52.4233 94.2708 52.4233C95.3361 52.4233 96.1777 52.6009 96.7956 52.956C97.4206 53.304 97.8965 53.7017 98.2232 54.1491C98.557 54.5895 98.8162 54.9517 99.0009 55.2358H99.214V47.1818H101.728V69H99.2992V66.4858H99.0009C98.8162 66.7841 98.5534 67.1605 98.2125 67.6151C97.8716 68.0625 97.3851 68.4638 96.753 68.8189C96.1209 69.1669 95.2793 69.3409 94.2282 69.3409ZM94.5691 67.0824C95.5776 67.0824 96.4299 66.8196 97.1259 66.294C97.8219 65.7614 98.351 65.0263 98.7132 64.0888C99.0755 63.1442 99.2566 62.054 99.2566 60.8182C99.2566 59.5966 99.079 58.5277 98.7239 57.6115C98.3688 56.6882 97.8432 55.9709 97.1472 55.4595C96.4512 54.9411 95.5918 54.6818 94.5691 54.6818C93.5037 54.6818 92.6159 54.9553 91.9057 55.5021C91.2026 56.0419 90.6735 56.777 90.3184 57.7074C89.9703 58.6307 89.7963 59.6676 89.7963 60.8182C89.7963 61.983 89.9739 63.0412 90.329 63.9929C90.6912 64.9375 91.2239 65.6903 91.927 66.2514C92.6373 66.8054 93.5179 67.0824 94.5691 67.0824ZM113.543 69.3409C111.966 69.3409 110.606 68.9929 109.463 68.2969C108.326 67.5938 107.449 66.6136 106.831 65.3565C106.22 64.0923 105.915 62.6222 105.915 60.946C105.915 59.2699 106.22 57.7926 106.831 56.5142C107.449 55.2287 108.308 54.2273 109.409 53.5099C110.517 52.7855 111.81 52.4233 113.287 52.4233C114.139 52.4233 114.981 52.5653 115.812 52.8494C116.643 53.1335 117.399 53.5952 118.081 54.2344C118.763 54.8665 119.306 55.7045 119.711 56.7486C120.116 57.7926 120.318 59.0781 120.318 60.6051V61.6705H107.705V59.4972H117.762C117.762 58.5739 117.577 57.75 117.208 57.0256C116.845 56.3011 116.327 55.7294 115.652 55.3104C114.985 54.8913 114.196 54.6818 113.287 54.6818C112.286 54.6818 111.419 54.9304 110.688 55.4276C109.963 55.9176 109.406 56.5568 109.015 57.3452C108.624 58.1335 108.429 58.9787 108.429 59.8807V61.3295C108.429 62.5653 108.642 63.6129 109.068 64.4723C109.502 65.3246 110.102 65.9744 110.869 66.4219C111.636 66.8622 112.527 67.0824 113.543 67.0824C114.203 67.0824 114.8 66.9901 115.333 66.8054C115.872 66.6136 116.338 66.3295 116.728 65.9531C117.119 65.5696 117.421 65.0937 117.634 64.5256L120.063 65.2074C119.807 66.0312 119.377 66.7557 118.774 67.3807C118.17 67.9986 117.424 68.4815 116.536 68.8295C115.649 69.1705 114.651 69.3409 113.543 69.3409ZM126.657 59.1562V69H124.143V52.6364H126.572V55.1932H126.785C127.169 54.3622 127.751 53.6946 128.532 53.1903C129.313 52.679 130.322 52.4233 131.558 52.4233C132.666 52.4233 133.635 52.6506 134.466 53.1051C135.297 53.5526 135.943 54.2344 136.405 55.1506C136.867 56.0597 137.097 57.2102 137.097 58.6023V69H134.583V58.7727C134.583 57.4872 134.249 56.4858 133.582 55.7685C132.914 55.044 131.998 54.6818 130.833 54.6818C130.031 54.6818 129.313 54.8558 128.681 55.2038C128.056 55.5518 127.563 56.0597 127.2 56.7273C126.838 57.3949 126.657 58.2045 126.657 59.1562ZM148.339 69.3409C146.805 69.3409 145.484 68.9787 144.376 68.2543C143.268 67.5298 142.416 66.532 141.82 65.2607C141.223 63.9893 140.925 62.5369 140.925 60.9034C140.925 59.2415 141.23 57.7749 141.841 56.5036C142.459 55.2251 143.318 54.2273 144.419 53.5099C145.527 52.7855 146.82 52.4233 148.297 52.4233C149.447 52.4233 150.484 52.6364 151.408 53.0625C152.331 53.4886 153.087 54.0852 153.677 54.8523C154.266 55.6193 154.632 56.5142 154.774 57.5369H152.26C152.068 56.7912 151.642 56.1307 150.982 55.5554C150.328 54.973 149.447 54.6818 148.339 54.6818C147.359 54.6818 146.5 54.9375 145.761 55.4489C145.03 55.9531 144.458 56.6669 144.046 57.5902C143.641 58.5064 143.439 59.5824 143.439 60.8182C143.439 62.0824 143.638 63.1832 144.036 64.1207C144.44 65.0582 145.009 65.7862 145.74 66.3047C146.479 66.8232 147.345 67.0824 148.339 67.0824C148.993 67.0824 149.586 66.9688 150.119 66.7415C150.651 66.5142 151.102 66.1875 151.472 65.7614C151.841 65.3352 152.104 64.8239 152.26 64.2273H154.774C154.632 65.1932 154.281 66.0632 153.719 66.8374C153.165 67.6044 152.43 68.2152 151.514 68.6697C150.605 69.1172 149.547 69.3409 148.339 69.3409ZM165.31 69.3409C163.734 69.3409 162.374 68.9929 161.23 68.2969C160.094 67.5938 159.217 66.6136 158.599 65.3565C157.988 64.0923 157.683 62.6222 157.683 60.946C157.683 59.2699 157.988 57.7926 158.599 56.5142C159.217 55.2287 160.076 54.2273 161.177 53.5099C162.285 52.7855 163.577 52.4233 165.055 52.4233C165.907 52.4233 166.749 52.5653 167.58 52.8494C168.411 53.1335 169.167 53.5952 169.849 54.2344C170.531 54.8665 171.074 55.7045 171.479 56.7486C171.884 57.7926 172.086 59.0781 172.086 60.6051V61.6705H159.472V59.4972H169.529C169.529 58.5739 169.344 57.75 168.975 57.0256C168.613 56.3011 168.094 55.7294 167.42 55.3104C166.752 54.8913 165.964 54.6818 165.055 54.6818C164.053 54.6818 163.187 54.9304 162.455 55.4276C161.731 55.9176 161.173 56.5568 160.783 57.3452C160.392 58.1335 160.197 58.9787 160.197 59.8807V61.3295C160.197 62.5653 160.41 63.6129 160.836 64.4723C161.269 65.3246 161.869 65.9744 162.636 66.4219C163.403 66.8622 164.295 67.0824 165.31 67.0824C165.971 67.0824 166.567 66.9901 167.1 66.8054C167.64 66.6136 168.105 66.3295 168.496 65.9531C168.886 65.5696 169.188 65.0937 169.401 64.5256L171.83 65.2074C171.575 66.0312 171.145 66.7557 170.541 67.3807C169.938 67.9986 169.192 68.4815 168.304 68.8295C167.416 69.1705 166.418 69.3409 165.31 69.3409Z" fill="white"/>
</svg>
